<mxfile host="app.diagrams.net" modified="2022-06-27T18:49:04.448Z" agent="5.0 (Windows NT 10.0; Win64; x64) AppleWebKit/537.36 (KHTML, like Gecko) Chrome/102.0.0.0 Safari/537.36" etag="-LCkcmQg_HNhVjkh1yfV" version="20.0.3" type="github">
  <diagram id="C5RBs43oDa-KdzZeNtuy" name="Page-1">
    <mxGraphModel dx="1157" dy="600" grid="1" gridSize="10" guides="1" tooltips="1" connect="1" arrows="1" fold="1" page="1" pageScale="1" pageWidth="827" pageHeight="1169" background="#F4F1DE" math="0" shadow="0">
      <root>
        <mxCell id="WIyWlLk6GJQsqaUBKTNV-0" />
        <mxCell id="WIyWlLk6GJQsqaUBKTNV-1" parent="WIyWlLk6GJQsqaUBKTNV-0" />
        <mxCell id="KOI8nvLPOMQZxwL0amlp-30" style="edgeStyle=orthogonalEdgeStyle;curved=0;rounded=1;sketch=0;orthogonalLoop=1;jettySize=auto;html=1;entryX=0;entryY=0.128;entryDx=0;entryDy=0;entryPerimeter=0;fontColor=#000000;strokeColor=#E07A5F;fillColor=#F2CC8F;" edge="1" parent="WIyWlLk6GJQsqaUBKTNV-1" source="KOI8nvLPOMQZxwL0amlp-0" target="KOI8nvLPOMQZxwL0amlp-16">
          <mxGeometry relative="1" as="geometry" />
        </mxCell>
        <mxCell id="KOI8nvLPOMQZxwL0amlp-0" value="Pupil" style="swimlane;fontStyle=0;childLayout=stackLayout;horizontal=1;startSize=30;horizontalStack=0;resizeParent=1;resizeParentMax=0;resizeLast=0;collapsible=1;marginBottom=0;fillColor=#F2CC8F;strokeColor=#E07A5F;fontColor=#393C56;" vertex="1" parent="WIyWlLk6GJQsqaUBKTNV-1">
          <mxGeometry x="60" y="150" width="130" height="150" as="geometry" />
        </mxCell>
        <mxCell id="KOI8nvLPOMQZxwL0amlp-1" value="+iris_frame&#xa;+threshold&#xa;" style="text;strokeColor=#d6b656;fillColor=#fff2cc;align=left;verticalAlign=middle;spacingLeft=4;spacingRight=4;overflow=hidden;points=[[0,0.5],[1,0.5]];portConstraint=eastwest;rotatable=0;" vertex="1" parent="KOI8nvLPOMQZxwL0amlp-0">
          <mxGeometry y="30" width="130" height="30" as="geometry" />
        </mxCell>
        <mxCell id="KOI8nvLPOMQZxwL0amlp-2" value="+x&#xa;+y" style="text;strokeColor=#d6b656;fillColor=#fff2cc;align=left;verticalAlign=middle;spacingLeft=4;spacingRight=4;overflow=hidden;points=[[0,0.5],[1,0.5]];portConstraint=eastwest;rotatable=0;" vertex="1" parent="KOI8nvLPOMQZxwL0amlp-0">
          <mxGeometry y="60" width="130" height="30" as="geometry" />
        </mxCell>
        <mxCell id="KOI8nvLPOMQZxwL0amlp-3" value="+ image_processing()&#xa;+ detect_iris()&#xa;" style="text;strokeColor=#36393d;fillColor=#ffcc99;align=left;verticalAlign=middle;spacingLeft=4;spacingRight=4;overflow=hidden;points=[[0,0.5],[1,0.5]];portConstraint=eastwest;rotatable=0;" vertex="1" parent="KOI8nvLPOMQZxwL0amlp-0">
          <mxGeometry y="90" width="130" height="60" as="geometry" />
        </mxCell>
        <mxCell id="KOI8nvLPOMQZxwL0amlp-31" style="edgeStyle=orthogonalEdgeStyle;curved=0;rounded=1;sketch=0;orthogonalLoop=1;jettySize=auto;html=1;entryX=1.015;entryY=-0.1;entryDx=0;entryDy=0;entryPerimeter=0;fontColor=#000000;strokeColor=#E07A5F;fillColor=#F2CC8F;" edge="1" parent="WIyWlLk6GJQsqaUBKTNV-1" source="KOI8nvLPOMQZxwL0amlp-4" target="KOI8nvLPOMQZxwL0amlp-1">
          <mxGeometry relative="1" as="geometry" />
        </mxCell>
        <mxCell id="KOI8nvLPOMQZxwL0amlp-4" value="Eye" style="swimlane;fontStyle=0;childLayout=stackLayout;horizontal=1;startSize=30;horizontalStack=0;resizeParent=1;resizeParentMax=0;resizeLast=0;collapsible=1;marginBottom=0;fillColor=#F2CC8F;strokeColor=#E07A5F;fontColor=#393C56;" vertex="1" parent="WIyWlLk6GJQsqaUBKTNV-1">
          <mxGeometry x="260" y="20" width="140" height="240" as="geometry" />
        </mxCell>
        <mxCell id="KOI8nvLPOMQZxwL0amlp-5" value="+frame()&#xa;+origin()&#xa;+center()&#xa;" style="text;strokeColor=#d6b656;fillColor=#fff2cc;align=left;verticalAlign=middle;spacingLeft=4;spacingRight=4;overflow=hidden;points=[[0,0.5],[1,0.5]];portConstraint=eastwest;rotatable=0;" vertex="1" parent="KOI8nvLPOMQZxwL0amlp-4">
          <mxGeometry y="30" width="140" height="60" as="geometry" />
        </mxCell>
        <mxCell id="KOI8nvLPOMQZxwL0amlp-6" value="  +pupil()&#xa;+landmarks_points()&#xa;+Left_eye_points()&#xa;+Right_eye_points()" style="text;strokeColor=#d6b656;fillColor=#fff2cc;align=left;verticalAlign=middle;spacingLeft=4;spacingRight=4;overflow=hidden;points=[[0,0.5],[1,0.5]];portConstraint=eastwest;rotatable=0;" vertex="1" parent="KOI8nvLPOMQZxwL0amlp-4">
          <mxGeometry y="90" width="140" height="60" as="geometry" />
        </mxCell>
        <mxCell id="KOI8nvLPOMQZxwL0amlp-7" value="+_middle_point()&#xa;+ _isolate()&#xa;+ _blinking_ratio()&#xa;+_analyze()&#xa;&#xa;" style="text;strokeColor=#36393d;fillColor=#ffcc99;align=left;verticalAlign=middle;spacingLeft=4;spacingRight=4;overflow=hidden;points=[[0,0.5],[1,0.5]];portConstraint=eastwest;rotatable=0;" vertex="1" parent="KOI8nvLPOMQZxwL0amlp-4">
          <mxGeometry y="150" width="140" height="90" as="geometry" />
        </mxCell>
        <mxCell id="KOI8nvLPOMQZxwL0amlp-34" value="" style="edgeStyle=orthogonalEdgeStyle;curved=0;rounded=1;sketch=0;orthogonalLoop=1;jettySize=auto;html=1;fontColor=#000000;strokeColor=#E07A5F;fillColor=#F2CC8F;entryX=1;entryY=0.5;entryDx=0;entryDy=0;" edge="1" parent="WIyWlLk6GJQsqaUBKTNV-1" source="KOI8nvLPOMQZxwL0amlp-8" target="KOI8nvLPOMQZxwL0amlp-3">
          <mxGeometry relative="1" as="geometry">
            <Array as="points">
              <mxPoint x="435" y="155" />
              <mxPoint x="435" y="270" />
            </Array>
          </mxGeometry>
        </mxCell>
        <mxCell id="KOI8nvLPOMQZxwL0amlp-8" value="Gaze Tracking" style="swimlane;fontStyle=0;childLayout=stackLayout;horizontal=1;startSize=30;horizontalStack=0;resizeParent=1;resizeParentMax=0;resizeLast=0;collapsible=1;marginBottom=0;fillColor=#F2CC8F;strokeColor=#E07A5F;fontColor=#393C56;" vertex="1" parent="WIyWlLk6GJQsqaUBKTNV-1">
          <mxGeometry x="470" y="20" width="140" height="270" as="geometry" />
        </mxCell>
        <mxCell id="KOI8nvLPOMQZxwL0amlp-9" value="+Frame&#xa;+Eye_left" style="text;strokeColor=#d6b656;fillColor=#fff2cc;align=left;verticalAlign=middle;spacingLeft=4;spacingRight=4;overflow=hidden;points=[[0,0.5],[1,0.5]];portConstraint=eastwest;rotatable=0;" vertex="1" parent="KOI8nvLPOMQZxwL0amlp-8">
          <mxGeometry y="30" width="140" height="30" as="geometry" />
        </mxCell>
        <mxCell id="KOI8nvLPOMQZxwL0amlp-10" value="+Eye_right&#xa;+Calibration&#xa;+Face Detector&#xa;+cwd&#xa;+model_path" style="text;strokeColor=#d6b656;fillColor=#fff2cc;align=left;verticalAlign=middle;spacingLeft=4;spacingRight=4;overflow=hidden;points=[[0,0.5],[1,0.5]];portConstraint=eastwest;rotatable=0;" vertex="1" parent="KOI8nvLPOMQZxwL0amlp-8">
          <mxGeometry y="60" width="140" height="90" as="geometry" />
        </mxCell>
        <mxCell id="KOI8nvLPOMQZxwL0amlp-11" value="+pupils_located()&#xa;+_analyze()&#xa;+ refresh()&#xa;+ pupil_left_coords()&#xa;+pupil_right_coords()&#xa;+ vertical_ratio()&#xa;+ is_blinking()&#xa;+annotated_frame()" style="text;strokeColor=#36393d;fillColor=#ffcc99;align=left;verticalAlign=middle;spacingLeft=4;spacingRight=4;overflow=hidden;points=[[0,0.5],[1,0.5]];portConstraint=eastwest;rotatable=0;fontColor=#000000;labelBackgroundColor=none;" vertex="1" parent="KOI8nvLPOMQZxwL0amlp-8">
          <mxGeometry y="150" width="140" height="120" as="geometry" />
        </mxCell>
        <mxCell id="KOI8nvLPOMQZxwL0amlp-35" style="edgeStyle=orthogonalEdgeStyle;curved=0;rounded=1;sketch=0;orthogonalLoop=1;jettySize=auto;html=1;entryX=1.014;entryY=0.408;entryDx=0;entryDy=0;entryPerimeter=0;fontColor=#000000;strokeColor=#E07A5F;fillColor=#F2CC8F;" edge="1" parent="WIyWlLk6GJQsqaUBKTNV-1" source="KOI8nvLPOMQZxwL0amlp-12" target="KOI8nvLPOMQZxwL0amlp-11">
          <mxGeometry relative="1" as="geometry" />
        </mxCell>
        <mxCell id="KOI8nvLPOMQZxwL0amlp-12" value=" Detection  " style="swimlane;fontStyle=0;childLayout=stackLayout;horizontal=1;startSize=30;horizontalStack=0;resizeParent=1;resizeParentMax=0;resizeLast=0;collapsible=1;marginBottom=0;fillColor=#F2CC8F;strokeColor=#E07A5F;fontColor=#393C56;" vertex="1" parent="WIyWlLk6GJQsqaUBKTNV-1">
          <mxGeometry x="470" y="330" width="140" height="160" as="geometry" />
        </mxCell>
        <mxCell id="KOI8nvLPOMQZxwL0amlp-13" value="+webcam&#xa;+face_cascade&#xa;+currentChar&#xa;+previousChar&#xa;+message&#xa;+is_message_final" style="text;strokeColor=#d6b656;fillColor=#fff2cc;align=left;verticalAlign=middle;spacingLeft=4;spacingRight=4;overflow=hidden;points=[[0,0.5],[1,0.5]];portConstraint=eastwest;rotatable=0;" vertex="1" parent="KOI8nvLPOMQZxwL0amlp-12">
          <mxGeometry y="30" width="140" height="90" as="geometry" />
        </mxCell>
        <mxCell id="KOI8nvLPOMQZxwL0amlp-14" value="" style="text;strokeColor=#d6b656;fillColor=#fff2cc;align=left;verticalAlign=middle;spacingLeft=4;spacingRight=4;overflow=hidden;points=[[0,0.5],[1,0.5]];portConstraint=eastwest;rotatable=0;" vertex="1" parent="KOI8nvLPOMQZxwL0amlp-12">
          <mxGeometry y="120" width="140" as="geometry" />
        </mxCell>
        <mxCell id="KOI8nvLPOMQZxwL0amlp-15" value="+countdown()&#xa;" style="text;strokeColor=#36393d;fillColor=#ffcc99;align=left;verticalAlign=middle;spacingLeft=4;spacingRight=4;overflow=hidden;points=[[0,0.5],[1,0.5]];portConstraint=eastwest;rotatable=0;" vertex="1" parent="KOI8nvLPOMQZxwL0amlp-12">
          <mxGeometry y="120" width="140" height="40" as="geometry" />
        </mxCell>
        <mxCell id="KOI8nvLPOMQZxwL0amlp-16" value=" Calibration" style="swimlane;fontStyle=0;childLayout=stackLayout;horizontal=1;startSize=30;horizontalStack=0;resizeParent=1;resizeParentMax=0;resizeLast=0;collapsible=1;marginBottom=0;fillColor=#F2CC8F;strokeColor=#E07A5F;fontColor=#393C56;" vertex="1" parent="WIyWlLk6GJQsqaUBKTNV-1">
          <mxGeometry x="260" y="320" width="140" height="180" as="geometry" />
        </mxCell>
        <mxCell id="KOI8nvLPOMQZxwL0amlp-17" value="+nb_frames&#xa;+threshold_left[]" style="text;strokeColor=#d6b656;fillColor=#fff2cc;align=left;verticalAlign=middle;spacingLeft=4;spacingRight=4;overflow=hidden;points=[[0,0.5],[1,0.5]];portConstraint=eastwest;rotatable=0;" vertex="1" parent="KOI8nvLPOMQZxwL0amlp-16">
          <mxGeometry y="30" width="140" height="30" as="geometry" />
        </mxCell>
        <mxCell id="KOI8nvLPOMQZxwL0amlp-18" value="+threshold_right[]" style="text;strokeColor=#d6b656;fillColor=#fff2cc;align=left;verticalAlign=middle;spacingLeft=4;spacingRight=4;overflow=hidden;points=[[0,0.5],[1,0.5]];portConstraint=eastwest;rotatable=0;" vertex="1" parent="KOI8nvLPOMQZxwL0amlp-16">
          <mxGeometry y="60" width="140" height="30" as="geometry" />
        </mxCell>
        <mxCell id="KOI8nvLPOMQZxwL0amlp-19" value="+is_complete()&#xa;+ threshold()&#xa;+ iris_size()&#xa;+find_best_threshold()&#xa;+evaluate()&#xa;" style="text;strokeColor=#36393d;fillColor=#ffcc99;align=left;verticalAlign=middle;spacingLeft=4;spacingRight=4;overflow=hidden;points=[[0,0.5],[1,0.5]];portConstraint=eastwest;rotatable=0;" vertex="1" parent="KOI8nvLPOMQZxwL0amlp-16">
          <mxGeometry y="90" width="140" height="90" as="geometry" />
        </mxCell>
        <mxCell id="KOI8nvLPOMQZxwL0amlp-25" value="Drowsy" style="swimlane;fontStyle=0;childLayout=stackLayout;horizontal=1;startSize=30;horizontalStack=0;resizeParent=1;resizeParentMax=0;resizeLast=0;collapsible=1;marginBottom=0;rounded=0;labelBackgroundColor=none;sketch=0;fontColor=#000000;strokeColor=#E07A5F;fillColor=#F2CC8F;" vertex="1" parent="WIyWlLk6GJQsqaUBKTNV-1">
          <mxGeometry x="650" y="365" width="140" height="90" as="geometry" />
        </mxCell>
        <mxCell id="KOI8nvLPOMQZxwL0amlp-26" value="+pupillocated" style="text;strokeColor=#d6b656;fillColor=#fff2cc;align=left;verticalAlign=middle;spacingLeft=4;spacingRight=4;overflow=hidden;points=[[0,0.5],[1,0.5]];portConstraint=eastwest;rotatable=0;rounded=0;labelBackgroundColor=none;sketch=0;" vertex="1" parent="KOI8nvLPOMQZxwL0amlp-25">
          <mxGeometry y="30" width="140" height="30" as="geometry" />
        </mxCell>
        <mxCell id="KOI8nvLPOMQZxwL0amlp-27" value="+Alarm()" style="text;strokeColor=#b46504;fillColor=#fad7ac;align=left;verticalAlign=middle;spacingLeft=4;spacingRight=4;overflow=hidden;points=[[0,0.5],[1,0.5]];portConstraint=eastwest;rotatable=0;rounded=0;labelBackgroundColor=none;sketch=0;" vertex="1" parent="KOI8nvLPOMQZxwL0amlp-25">
          <mxGeometry y="60" width="140" height="30" as="geometry" />
        </mxCell>
        <mxCell id="KOI8nvLPOMQZxwL0amlp-33" style="edgeStyle=orthogonalEdgeStyle;curved=0;rounded=1;sketch=0;orthogonalLoop=1;jettySize=auto;html=1;entryX=1;entryY=0.5;entryDx=0;entryDy=0;fontColor=#000000;strokeColor=#E07A5F;fillColor=#F2CC8F;" edge="1" parent="WIyWlLk6GJQsqaUBKTNV-1" source="KOI8nvLPOMQZxwL0amlp-10" target="KOI8nvLPOMQZxwL0amlp-17">
          <mxGeometry relative="1" as="geometry">
            <Array as="points">
              <mxPoint x="450" y="125" />
              <mxPoint x="450" y="365" />
            </Array>
          </mxGeometry>
        </mxCell>
        <mxCell id="KOI8nvLPOMQZxwL0amlp-36" style="edgeStyle=orthogonalEdgeStyle;curved=0;rounded=1;sketch=0;orthogonalLoop=1;jettySize=auto;html=1;fontColor=#000000;strokeColor=#E07A5F;fillColor=#F2CC8F;" edge="1" parent="WIyWlLk6GJQsqaUBKTNV-1" source="KOI8nvLPOMQZxwL0amlp-13" target="KOI8nvLPOMQZxwL0amlp-25">
          <mxGeometry relative="1" as="geometry" />
        </mxCell>
        <mxCell id="KOI8nvLPOMQZxwL0amlp-37" value="1" style="text;html=1;strokeColor=none;fillColor=none;align=center;verticalAlign=middle;whiteSpace=wrap;rounded=0;labelBackgroundColor=none;sketch=0;fontColor=#000000;" vertex="1" parent="WIyWlLk6GJQsqaUBKTNV-1">
          <mxGeometry x="170" y="150" width="60" height="30" as="geometry" />
        </mxCell>
        <mxCell id="KOI8nvLPOMQZxwL0amlp-38" value="&amp;nbsp;1" style="text;html=1;strokeColor=none;fillColor=none;align=center;verticalAlign=middle;whiteSpace=wrap;rounded=0;labelBackgroundColor=none;sketch=0;fontColor=#000000;" vertex="1" parent="WIyWlLk6GJQsqaUBKTNV-1">
          <mxGeometry x="200" y="110" width="60" height="30" as="geometry" />
        </mxCell>
        <mxCell id="KOI8nvLPOMQZxwL0amlp-39" value="1" style="text;html=1;strokeColor=none;fillColor=none;align=center;verticalAlign=middle;whiteSpace=wrap;rounded=0;labelBackgroundColor=none;sketch=0;fontColor=#000000;" vertex="1" parent="WIyWlLk6GJQsqaUBKTNV-1">
          <mxGeometry x="220" y="310" width="60" height="30" as="geometry" />
        </mxCell>
        <mxCell id="KOI8nvLPOMQZxwL0amlp-40" value="1" style="text;html=1;strokeColor=none;fillColor=none;align=center;verticalAlign=middle;whiteSpace=wrap;rounded=0;labelBackgroundColor=none;sketch=0;fontColor=#000000;" vertex="1" parent="WIyWlLk6GJQsqaUBKTNV-1">
          <mxGeometry x="180" y="200" width="60" height="30" as="geometry" />
        </mxCell>
        <mxCell id="KOI8nvLPOMQZxwL0amlp-41" value="1" style="text;html=1;strokeColor=none;fillColor=none;align=center;verticalAlign=middle;whiteSpace=wrap;rounded=0;labelBackgroundColor=none;sketch=0;fontColor=#000000;" vertex="1" parent="WIyWlLk6GJQsqaUBKTNV-1">
          <mxGeometry x="420" y="100" width="60" height="30" as="geometry" />
        </mxCell>
        <mxCell id="KOI8nvLPOMQZxwL0amlp-42" value="1" style="text;html=1;strokeColor=none;fillColor=none;align=center;verticalAlign=middle;whiteSpace=wrap;rounded=0;labelBackgroundColor=none;sketch=0;fontColor=#000000;" vertex="1" parent="WIyWlLk6GJQsqaUBKTNV-1">
          <mxGeometry x="430" y="130" width="60" height="30" as="geometry" />
        </mxCell>
        <mxCell id="KOI8nvLPOMQZxwL0amlp-43" value="1" style="text;html=1;strokeColor=none;fillColor=none;align=center;verticalAlign=middle;whiteSpace=wrap;rounded=0;labelBackgroundColor=none;sketch=0;fontColor=#000000;" vertex="1" parent="WIyWlLk6GJQsqaUBKTNV-1">
          <mxGeometry x="384" y="335" width="60" height="30" as="geometry" />
        </mxCell>
        <mxCell id="KOI8nvLPOMQZxwL0amlp-44" value="1" style="text;html=1;strokeColor=none;fillColor=none;align=center;verticalAlign=middle;whiteSpace=wrap;rounded=0;labelBackgroundColor=none;sketch=0;fontColor=#000000;" vertex="1" parent="WIyWlLk6GJQsqaUBKTNV-1">
          <mxGeometry x="180" y="240" width="60" height="30" as="geometry" />
        </mxCell>
        <mxCell id="KOI8nvLPOMQZxwL0amlp-45" value="1" style="text;html=1;strokeColor=none;fillColor=none;align=center;verticalAlign=middle;whiteSpace=wrap;rounded=0;labelBackgroundColor=none;sketch=0;fontColor=#000000;" vertex="1" parent="WIyWlLk6GJQsqaUBKTNV-1">
          <mxGeometry x="490" y="300" width="60" height="30" as="geometry" />
        </mxCell>
        <mxCell id="KOI8nvLPOMQZxwL0amlp-46" value="1" style="text;html=1;strokeColor=none;fillColor=none;align=center;verticalAlign=middle;whiteSpace=wrap;rounded=0;labelBackgroundColor=none;sketch=0;fontColor=#000000;" vertex="1" parent="WIyWlLk6GJQsqaUBKTNV-1">
          <mxGeometry x="620" y="180" width="60" height="30" as="geometry" />
        </mxCell>
        <mxCell id="KOI8nvLPOMQZxwL0amlp-47" value="1" style="text;html=1;strokeColor=none;fillColor=none;align=center;verticalAlign=middle;whiteSpace=wrap;rounded=0;labelBackgroundColor=none;sketch=0;fontColor=#000000;" vertex="1" parent="WIyWlLk6GJQsqaUBKTNV-1">
          <mxGeometry x="590" y="365" width="60" height="30" as="geometry" />
        </mxCell>
        <mxCell id="KOI8nvLPOMQZxwL0amlp-48" value="1" style="text;html=1;strokeColor=none;fillColor=none;align=center;verticalAlign=middle;whiteSpace=wrap;rounded=0;labelBackgroundColor=none;sketch=0;fontColor=#000000;" vertex="1" parent="WIyWlLk6GJQsqaUBKTNV-1">
          <mxGeometry x="610" y="410" width="60" height="30" as="geometry" />
        </mxCell>
      </root>
    </mxGraphModel>
  </diagram>
</mxfile>
